<svg width="92" height="82" viewBox="0 0 92 82" fill="none" xmlns="http://www.w3.org/2000/svg">
<g clip-path="url(#clip0_1_45)">
<rect x="0.54185" y="0.54185" width="89.9471" height="80.9163" stroke="black" stroke-width="1.0837"/>
<path d="M57.0171 18.3254L58.0141 19.3946C58.0475 19.4297 58.095 19.449 58.1469 19.4483C58.1987 19.4476 58.2508 19.4271 58.2922 19.391C60.0936 17.8353 61.913 16.0604 63.7505 14.0664C63.8409 13.9683 63.9573 13.8981 64.086 13.8641C64.2147 13.8302 64.3503 13.834 64.4766 13.875C64.9052 14.0171 65.0593 14.2796 64.9389 14.6625C64.8835 14.8431 64.7366 15.0526 64.4982 15.291C62.4512 17.3356 60.3994 19.3742 58.3428 21.4067C57.1194 22.6156 55.6757 22.9552 54.0116 22.4254C53.3325 22.2086 52.7304 21.9088 52.2055 21.5259C52.1311 21.4721 52.04 21.4468 51.949 21.4548C51.858 21.4627 51.7733 21.5034 51.7106 21.5693C50.5691 22.7541 49.4432 23.8595 48.333 24.8854C48.0946 25.1069 47.8538 25.2406 47.6106 25.2863C47.047 25.3875 46.852 25.1527 47.0254 24.5819C47.0904 24.37 47.2265 24.1605 47.4336 23.9534C48.5654 22.8167 49.7455 21.6692 50.9736 20.5108C51.0104 20.4774 51.0322 20.4306 51.0342 20.3805C51.0362 20.3304 51.0184 20.2811 50.9845 20.2435C49.6479 18.7576 49.2349 17.1646 49.7455 15.4644C49.9164 14.8937 50.3042 14.3157 50.9086 13.7305C52.9869 11.7148 55.052 9.68707 57.1038 7.64731C57.3783 7.37518 57.6312 7.20179 57.8624 7.12714C58.4235 6.94411 58.6727 7.21022 58.6101 7.92546C58.5984 8.04233 58.5446 8.15236 58.4584 8.23612L52.6931 13.7883C52.6749 13.8053 52.66 13.8256 52.6494 13.848C52.6387 13.8703 52.6326 13.8943 52.6312 13.9185C52.6299 13.9428 52.6334 13.9667 52.6415 13.989C52.6497 14.0113 52.6623 14.0315 52.6787 14.0484L53.6034 14.984C53.6273 15.0086 53.656 15.028 53.688 15.0411C53.72 15.0541 53.7545 15.0604 53.7895 15.0598C53.8245 15.0591 53.8594 15.0514 53.8919 15.0371C53.9245 15.0229 53.9541 15.0023 53.9791 14.9767C55.7612 13.1585 57.5011 11.4969 59.1989 9.99172C59.4012 9.81351 59.5867 9.71598 59.7552 9.69912C60.0635 9.6654 60.2646 9.80026 60.3585 10.1037C60.3987 10.2362 60.4027 10.3761 60.3702 10.5081C60.3377 10.64 60.2699 10.7588 60.1743 10.8514L54.9003 15.934C54.8807 15.9529 54.8645 15.975 54.8528 15.9991C54.8411 16.0232 54.834 16.0487 54.832 16.0743C54.83 16.0998 54.8331 16.1248 54.8411 16.1479C54.8491 16.1709 54.8618 16.1915 54.8786 16.2085L55.8359 17.155C55.8695 17.1878 55.9177 17.2031 55.9704 17.1977C56.023 17.1923 56.0758 17.1666 56.1176 17.1261L61.323 12.1013C61.4474 11.9809 61.6087 11.9061 61.7806 11.8891C61.9525 11.872 62.1248 11.9137 62.2694 12.0074C62.7198 12.2964 62.7017 12.6865 62.2152 13.1778C60.5439 14.8587 58.8221 16.4855 57.0496 18.0581C57.0295 18.0761 57.0128 18.0973 57.0002 18.1206C56.9877 18.1438 56.9797 18.1687 56.9767 18.1936C56.9736 18.2185 56.9757 18.2429 56.9826 18.2656C56.9895 18.2882 57.0013 18.3085 57.0171 18.3254ZM51.3024 15.2585C50.8352 16.3663 50.8207 17.3789 51.259 18.2965C51.6492 19.1153 52.2596 19.8269 53.0905 20.4314C54.2272 21.2598 55.5758 21.3537 57.1363 20.7131C57.1553 20.7055 57.1721 20.6933 57.1852 20.6775C57.1983 20.6617 57.2072 20.6429 57.2112 20.6228C57.2151 20.6027 57.214 20.5819 57.2078 20.5623C57.2017 20.5428 57.1908 20.5251 57.176 20.5108L51.6708 15.179C51.6442 15.1536 51.6118 15.1352 51.5764 15.1253C51.541 15.1153 51.5035 15.1142 51.4673 15.122C51.4311 15.1298 51.3972 15.1463 51.3685 15.1701C51.3397 15.1939 51.3171 15.2242 51.3024 15.2585Z" fill="black"/>
<path d="M43.0157 27.2876C42.5701 27.5958 42.1198 27.8969 41.6647 28.1907C40.6725 28.8289 39.726 28.765 38.8254 27.9992C38.2474 27.5055 37.7814 26.9215 37.4274 26.2472C36.7434 24.9516 36.1474 23.6163 35.6393 22.2412C34.4472 19.0166 33.3129 15.7727 32.2365 12.5095C31.9475 11.6329 31.6705 10.3 31.4056 8.51067C31.278 7.66298 31.5489 7.21385 32.2184 7.16328C32.2716 7.15883 32.3261 7.16905 32.3772 7.19301C32.4283 7.21697 32.4743 7.25393 32.511 7.30054C40.0849 17.0081 47.5504 26.8011 54.9075 36.6797C55.6974 37.7369 56.1272 38.6002 56.1971 39.2697C56.3199 40.4305 55.8226 41.3914 54.7052 42.1524C53.9057 42.6966 53.0953 42.8074 52.2741 42.4847C51.7322 42.2752 51.1663 41.7875 50.5763 41.0217C49.8394 40.0656 49.2433 39.118 48.7882 38.1788C46.7267 33.9138 44.882 30.3015 43.2541 27.3418C43.2432 27.3217 43.2282 27.3042 43.2099 27.2905C43.1917 27.2767 43.1706 27.2669 43.1481 27.2618C43.1256 27.2567 43.1022 27.2564 43.0794 27.2608C43.0566 27.2652 43.0349 27.2744 43.0157 27.2876ZM54.5679 40.2992C54.8786 39.6972 54.9002 39.1276 54.6329 38.5906C54.6305 38.5882 54.3163 38.1607 53.6901 37.3082C46.9856 28.2003 40.3016 19.3405 33.638 10.7286C33.1492 10.0977 33.0324 10.1591 33.2876 10.9129C34.5809 14.7516 35.8909 18.4687 37.2179 22.0642C37.9114 23.9498 38.8555 25.6837 40.0499 27.2659C40.1016 27.3343 40.1782 27.3802 40.2649 27.3949C40.3517 27.4095 40.4424 27.3919 40.5195 27.3454L43.395 25.6151C43.4327 25.5923 43.4747 25.5775 43.5186 25.5717C43.5625 25.5659 43.6074 25.5692 43.6505 25.5813C43.6936 25.5934 43.7342 25.6142 43.7697 25.6423C43.8053 25.6705 43.8351 25.7054 43.8573 25.7451C45.8056 29.1215 47.6202 32.564 49.3011 36.0728C49.9008 37.3251 50.5691 38.5412 51.306 39.7213C51.5564 40.1186 51.8538 40.469 52.1982 40.7724C52.5859 41.112 52.9917 41.2457 53.4156 41.1734C53.9309 41.0867 54.315 40.7953 54.5679 40.2992Z" fill="black"/>
<path d="M30.5531 36.2353C33.0047 33.8392 35.6236 31.6368 38.41 29.6284C38.6797 29.4333 38.9434 29.337 39.2011 29.3394C39.7694 29.3466 39.9175 29.6212 39.6454 30.163C39.5442 30.3629 39.3708 30.5568 39.1252 30.7446C35.26 33.7043 32.5965 35.9415 31.1347 37.4563C29.8198 38.817 29.98 39.9392 31.6152 40.823C32.3497 41.2204 32.9975 41.1264 33.5586 40.5412L43.2035 30.4556C43.2478 30.4091 43.2978 30.3722 43.3501 30.3473C43.4025 30.3223 43.456 30.31 43.507 30.3111C43.9043 30.3159 44.1379 30.5303 44.2078 30.9541C44.2168 31.0073 44.2131 31.0633 44.1969 31.1182C44.1807 31.1731 44.1524 31.2256 44.1138 31.272C41.2095 34.7134 38.1691 38.0307 34.9927 41.224C34.0463 42.1728 33.0059 42.5413 31.8716 42.3294C30.8096 42.1319 29.9752 41.6021 29.3683 40.7399C28.8216 39.9621 28.7325 39.1023 29.101 38.1607C29.3153 37.6141 29.7994 36.9723 30.5531 36.2353Z" fill="black"/>
<path d="M19.8389 56.6486L23.2056 61.5289C23.2851 61.6469 23.2586 61.7059 23.1262 61.7059L20.8359 61.7276C20.7863 61.7274 20.7353 61.711 20.6878 61.68C20.6403 61.649 20.5979 61.6044 20.565 61.5506C19.7896 60.3031 19.0081 59.0593 18.2206 57.819C17.7486 57.0773 17.0972 56.8461 16.2663 57.1255C16.2174 57.1426 16.1749 57.175 16.1446 57.2182C16.1142 57.2615 16.0975 57.3136 16.0966 57.3675L16.0677 61.5397C16.0677 61.5658 16.0628 61.5917 16.0534 61.6158C16.0439 61.6399 16.0301 61.6618 16.0126 61.6802C15.9952 61.6987 15.9745 61.7133 15.9517 61.7233C15.9289 61.7333 15.9045 61.7384 15.8798 61.7384L13.8822 61.724C13.8333 61.724 13.7865 61.7027 13.7519 61.6647C13.7174 61.6268 13.698 61.5753 13.698 61.5217V49.7346C13.6981 49.6866 13.7176 49.6404 13.7525 49.6055C13.7874 49.5706 13.8351 49.5496 13.8858 49.5468C14.8298 49.4914 16.0111 49.4721 17.4295 49.489C18.4699 49.501 19.4187 49.7154 20.276 50.132C20.9407 50.4571 21.4187 50.9556 21.7101 51.6275C22.5265 53.5155 21.916 55.1146 19.8787 56.4247C19.861 56.4361 19.8459 56.4511 19.8343 56.4687C19.8227 56.4863 19.8148 56.5061 19.8111 56.5271C19.8074 56.548 19.8079 56.5696 19.8127 56.5905C19.8175 56.6114 19.8264 56.6312 19.8389 56.6486ZM19.3729 53.8166C19.7534 52.9568 19.58 52.3343 18.8528 51.949C18.1399 51.5733 17.2802 51.4999 16.2736 51.7286C16.2286 51.7386 16.1885 51.7654 16.1596 51.8048C16.1307 51.8442 16.1148 51.8938 16.1146 51.9454V54.6185C16.1148 54.6709 16.1313 54.7212 16.1611 54.7603C16.1909 54.7994 16.2321 54.8247 16.2772 54.8316C16.4867 54.8605 16.8407 54.8858 17.3392 54.9075C18.3531 54.9533 19.031 54.5896 19.3729 53.8166Z" fill="black"/>
<path d="M26.8902 60.7992C25.7969 60.0888 25.1033 59.0918 24.8095 57.8082C24.5567 56.6956 24.5085 55.5408 24.665 54.344C24.7879 53.4047 25.1081 52.539 25.6259 51.7467C26.1196 50.9929 26.806 50.4282 27.685 50.0525C29.2455 49.3878 30.8445 49.3084 32.4821 49.8141C33.4743 50.1223 34.2389 50.5944 34.776 51.2301C35.3467 51.9092 35.7429 52.7666 35.9644 53.8021C36.1571 54.6956 36.2269 55.5143 36.1739 56.2585C36.1137 57.1062 35.9427 57.8997 35.661 58.639C35.2347 59.7468 34.4629 60.5572 33.3455 61.0701C30.9878 62.1562 28.8361 62.0659 26.8902 60.7992ZM28.2376 58.8232C28.9312 59.4012 29.6934 59.6697 30.5242 59.6288C31.9884 59.5566 32.9216 58.8305 33.3238 57.4506C33.555 56.6486 33.5851 55.5601 33.4141 54.185C33.2552 52.9087 32.6302 52.1188 31.5393 51.8153C29.1479 51.1482 27.7331 52.0297 27.2948 54.4596C27.0853 55.6227 27.1744 56.7534 27.5621 57.8515C27.697 58.2368 27.9222 58.5608 28.2376 58.8232Z" fill="black"/>
<path d="M39.8043 55.5613C39.4238 55.294 39.1144 54.9918 38.876 54.6546C38.6544 54.3392 38.5063 53.943 38.4317 53.4662C38.1138 51.4144 39 50.1489 41.0903 49.6696C42.6677 49.3084 44.262 49.5287 45.8731 50.3307C45.9202 50.3542 45.9569 50.3939 45.9757 50.4416C45.9945 50.4893 45.994 50.5414 45.9742 50.5871L45.3457 52.0718C45.3291 52.1112 45.304 52.1465 45.2719 52.1754C45.2398 52.2043 45.2013 52.2262 45.159 52.2397C45.1166 52.2533 45.0712 52.2582 45.0256 52.2542C44.9801 52.2502 44.9353 52.2373 44.8941 52.2163C43.861 51.6913 42.8279 51.5444 41.7947 51.7756C41.3179 51.884 41 52.1079 40.8411 52.4475C40.6773 52.7943 40.7183 53.1326 40.9639 53.4626C41.1012 53.6456 41.3528 53.831 41.7189 54.0189C43.2601 54.804 44.2776 55.3482 44.7713 55.6516C45.2265 55.9334 45.572 56.3199 45.808 56.8112C46.0103 57.2326 46.1091 57.7239 46.1042 58.285C46.0898 59.8528 45.3216 60.8943 43.7996 61.4097C42.0175 62.0118 40.2053 61.8865 38.363 61.034C38.3135 61.0113 38.2716 60.9751 38.2421 60.9296C38.2127 60.8842 38.197 60.8314 38.1968 60.7775V58.8775C38.1967 58.8587 38.2014 58.8402 38.2105 58.8238C38.2196 58.8073 38.2329 58.7934 38.2491 58.7834C38.2653 58.7733 38.2838 58.7674 38.3031 58.7661C38.3224 58.7649 38.3418 58.7684 38.3594 58.7763C39.9127 59.4891 41.3047 59.7649 42.5353 59.6035C43.5202 59.4759 43.8622 58.9088 43.5612 57.9021C43.5282 57.7892 43.46 57.6882 43.3661 57.6131C42.8483 57.1941 42.2776 56.8594 41.6538 56.6089C41.0855 56.3801 40.469 56.0309 39.8043 55.5613Z" fill="black"/>
<path d="M50.6594 51.9345C50.6599 51.8982 50.6531 51.8621 50.6395 51.8284C50.626 51.7946 50.6058 51.7639 50.5803 51.7381C50.5547 51.7122 50.5243 51.6916 50.4907 51.6776C50.4572 51.6636 50.4212 51.6564 50.3848 51.6564L47.4336 51.6383C47.3837 51.6383 47.336 51.6185 47.3007 51.5833C47.2655 51.5481 47.2457 51.5003 47.2457 51.4505V49.6949C47.2457 49.646 47.2655 49.5992 47.3007 49.5646C47.336 49.5301 47.3837 49.5107 47.4336 49.5107L56.2585 49.489C56.3074 49.489 56.3542 49.5088 56.3888 49.544C56.4233 49.5792 56.4427 49.627 56.4427 49.6768V51.418C56.4427 51.4812 56.4172 51.5418 56.3718 51.5866C56.3265 51.6313 56.2649 51.6564 56.2007 51.6564L53.3108 51.6744C53.23 51.6745 53.1525 51.7079 53.095 51.7674C53.0375 51.8269 53.0047 51.9077 53.0038 51.9923L52.946 61.5253C52.9461 61.5783 52.9272 61.6292 52.8934 61.6671C52.8596 61.7049 52.8137 61.7266 52.7654 61.7276L50.8617 61.7456C50.8239 61.7457 50.7865 61.7378 50.7516 61.7225C50.7168 61.7073 50.6851 61.6849 50.6586 61.6566C50.632 61.6284 50.6111 61.5949 50.597 61.5581C50.5828 61.5213 50.5758 61.4819 50.5763 61.4422L50.6594 51.9345Z" fill="black"/>
<path d="M69.5013 56.5005C69.5013 57.8878 68.9502 59.2182 67.9693 60.1991C66.9883 61.1801 65.6579 61.7312 64.2707 61.7312H63.2303C61.843 61.7312 60.5126 61.1801 59.5317 60.1991C58.5507 59.2182 57.9996 57.8878 57.9996 56.5005V54.7521C57.9996 53.3649 58.5507 52.0345 59.5317 51.0535C60.5126 50.0726 61.843 49.5215 63.2303 49.5215H64.2707C65.6579 49.5215 66.9883 50.0726 67.9693 51.0535C68.9502 52.0345 69.5013 53.3649 69.5013 54.7521V56.5005ZM63.2339 59.5818C64.1322 59.7625 64.9365 59.5662 65.647 58.993C66.2249 58.5258 66.6066 57.8672 66.7921 57.0171C67.0642 55.7696 66.951 54.5222 66.4525 53.2747C66.1226 52.4535 65.6457 51.9743 65.022 51.837C62.5873 51.3 61.1532 52.0573 60.7197 54.1092C60.5728 54.8099 60.5042 55.4626 60.5138 56.067C60.5234 56.7799 60.698 57.4277 61.0376 58.0105C61.5337 58.8606 62.2658 59.3844 63.2339 59.5818Z" fill="black"/>
<path d="M76.0938 59.1664C76.1661 59.453 76.2467 59.4542 76.3358 59.17L79.2546 49.7707C79.2735 49.7109 79.3067 49.6584 79.3495 49.6208C79.3923 49.5832 79.4425 49.5623 79.493 49.5612L81.5304 49.554C81.5577 49.5532 81.5845 49.5596 81.6087 49.5727C81.6329 49.5858 81.6536 49.6052 81.6692 49.6293C81.6848 49.6534 81.6947 49.6814 81.6982 49.7111C81.7017 49.7407 81.6987 49.7711 81.6893 49.7996L77.7013 61.5686C77.681 61.6278 77.6429 61.6791 77.5923 61.7154C77.5418 61.7517 77.4814 61.7711 77.4195 61.7709H75.2232C75.1201 61.7708 75.0193 61.738 74.9351 61.6772C74.8509 61.6163 74.7875 61.5303 74.7536 61.4314L70.7729 49.7527C70.7653 49.7297 70.7624 49.7053 70.7644 49.6814C70.7665 49.6575 70.7734 49.6348 70.7846 49.6152C70.7959 49.5955 70.8111 49.5794 70.8292 49.5681C70.8472 49.5569 70.8675 49.5508 70.8884 49.5504L73.0739 49.5576C73.1194 49.5575 73.165 49.5748 73.2045 49.6072C73.244 49.6395 73.2754 49.6854 73.2943 49.7382C74.3924 52.9821 75.3256 56.1248 76.0938 59.1664Z" fill="black"/>
<path d="M17.7415 65.9944V72.2996H16.43V65.9944H17.7415ZM28.7603 70.2861V67.5707H30.0719V72.2996H28.8127V71.4406H28.7634C28.6567 71.7177 28.4791 71.9404 28.2308 72.1087C27.9845 72.277 27.6838 72.3611 27.3287 72.3611C27.0127 72.3611 26.7346 72.2893 26.4944 72.1456C26.2543 72.002 26.0665 71.7977 25.931 71.533C25.7976 71.2682 25.7299 70.9511 25.7278 70.5816V67.5707H27.0393V70.3477C27.0414 70.6268 27.1163 70.8474 27.2641 71.0096C27.4119 71.1717 27.6099 71.2528 27.8583 71.2528C28.0163 71.2528 28.1641 71.2169 28.3016 71.1451C28.4391 71.0712 28.55 70.9624 28.6341 70.8187C28.7203 70.675 28.7624 70.4975 28.7603 70.2861ZM39.1526 67.5707L40.0208 69.2239L40.9106 67.5707H42.2559L40.8859 69.9351L42.2929 72.2996H40.9537L40.0208 70.6648L39.1034 72.2996H37.7487L39.1526 69.9351L37.798 67.5707H39.1526ZM53.0031 70.2861V67.5707H54.3146V72.2996H53.0554V71.4406H53.0061C52.8994 71.7177 52.7219 71.9404 52.4735 72.1087C52.2272 72.277 51.9265 72.3611 51.5715 72.3611C51.2554 72.3611 50.9773 72.2893 50.7371 72.1456C50.497 72.002 50.3092 71.7977 50.1737 71.533C50.0403 71.2682 49.9726 70.9511 49.9705 70.5816V67.5707H51.2821V70.3477C51.2841 70.6268 51.359 70.8474 51.5068 71.0096C51.6546 71.1717 51.8526 71.2528 52.101 71.2528C52.259 71.2528 52.4068 71.2169 52.5443 71.1451C52.6818 71.0712 52.7927 70.9624 52.8768 70.8187C52.963 70.675 53.0051 70.4975 53.0031 70.2861ZM59.6984 72.2996V67.5707H60.9699V68.3958H61.0192C61.1054 68.1023 61.2501 67.8806 61.4533 67.7308C61.6565 67.5789 61.8905 67.503 62.1552 67.503C62.2209 67.503 62.2917 67.5071 62.3677 67.5153C62.4436 67.5235 62.5103 67.5348 62.5678 67.5491V68.7129C62.5062 68.6944 62.421 68.678 62.3123 68.6636C62.2035 68.6493 62.1039 68.6421 62.0136 68.6421C61.8207 68.6421 61.6483 68.6841 61.4964 68.7683C61.3466 68.8504 61.2275 68.9653 61.1393 69.1131C61.0531 69.2609 61.01 69.4312 61.01 69.6242V72.2996H59.6984ZM71.1352 74.0729C70.9689 74.0729 70.8129 74.0595 70.6672 74.0329C70.5235 74.0082 70.4045 73.9764 70.3101 73.9374L70.6056 72.9584C70.7596 73.0056 70.8981 73.0313 71.0213 73.0354C71.1465 73.0395 71.2542 73.0107 71.3445 72.9492C71.4369 72.8876 71.5118 72.7829 71.5693 72.6351L71.6462 72.435L69.9499 67.5707H71.3291L72.3082 71.0435H72.3574L73.3457 67.5707H74.7342L72.8962 72.8106C72.8079 73.0651 72.6879 73.2868 72.536 73.4756C72.3862 73.6665 72.1963 73.8133 71.9664 73.9159C71.7365 74.0206 71.4595 74.0729 71.1352 74.0729Z" fill="black"/>
</g>
<defs>
<clipPath id="clip0_1_45">
<rect width="91.0308" height="82" fill="white"/>
</clipPath>
</defs>
</svg>
